<svg width="221" height="40" viewBox="0 0 221 40" fill="none" xmlns="http://www.w3.org/2000/svg">
<path d="M52.1768 11L49.2635 0.818176H51.6151L53.3004 7.89275H53.3849L55.2443 0.818176H57.2578L59.1122 7.90767H59.2017L60.8871 0.818176H63.2386L60.3253 11H58.2273L56.2883 4.34303H56.2088L54.2749 11H52.1768Z" fill="#FF6154" fill-opacity="0.7"/>
<path d="M67.0108 11.1491C66.2253 11.1491 65.5492 10.9901 64.9824 10.6719C64.419 10.3504 63.9848 9.8963 63.6799 9.30965C63.3749 8.71969 63.2225 8.02201 63.2225 7.21661C63.2225 6.4311 63.3749 5.74171 63.6799 5.14843C63.9848 4.55516 64.414 4.0928 64.9675 3.76136C65.5243 3.42992 66.1773 3.2642 66.9263 3.2642C67.4301 3.2642 67.8991 3.3454 68.3333 3.50781C68.7708 3.6669 69.1519 3.90719 69.4767 4.22869C69.8049 4.55018 70.0601 4.95454 70.2424 5.44176C70.4246 5.92566 70.5158 6.49242 70.5158 7.14204V7.72372H64.0676V6.41122H68.5222C68.5222 6.10629 68.4559 5.83617 68.3233 5.60085C68.1908 5.36553 68.0068 5.18158 67.7715 5.049C67.5395 4.91311 67.2693 4.84517 66.9611 4.84517C66.6396 4.84517 66.3546 4.91974 66.106 5.06889C65.8607 5.21472 65.6685 5.41193 65.5293 5.66051C65.3901 5.90577 65.3188 6.17921 65.3155 6.48082V7.72869C65.3155 8.10653 65.3851 8.433 65.5243 8.70809C65.6668 8.98319 65.8674 9.19531 66.1259 9.34445C66.3844 9.4936 66.691 9.56818 67.0456 9.56818C67.2809 9.56818 67.4964 9.53503 67.6919 9.46874C67.8875 9.40246 68.0549 9.30303 68.1941 9.17045C68.3333 9.03787 68.4393 8.87547 68.5122 8.68323L70.4711 8.81249C70.3716 9.28314 70.1678 9.69412 69.8595 10.0454C69.5546 10.3935 69.1602 10.6652 68.6763 10.8608C68.1957 11.053 67.6406 11.1491 67.0108 11.1491Z" fill="#FF6154" fill-opacity="0.7"/>
<path d="M77.256 6.58522V11H75.1381V3.36363H77.1566V4.71093H77.2461C77.4151 4.2668 77.6985 3.91548 78.0962 3.65695C78.494 3.39512 78.9762 3.2642 79.543 3.2642C80.0733 3.2642 80.5356 3.3802 80.93 3.61221C81.3245 3.84422 81.631 4.17566 81.8498 4.60653C82.0685 5.03409 82.1779 5.5445 82.1779 6.13778V11H80.06V6.51562C80.0633 6.04829 79.944 5.68371 79.7021 5.42187C79.4601 5.15672 79.127 5.02414 78.7028 5.02414C78.4177 5.02414 78.1658 5.08546 77.9471 5.20809C77.7316 5.33072 77.5626 5.5097 77.44 5.74502C77.3207 5.97703 77.2593 6.2571 77.256 6.58522Z" fill="#FF6154" fill-opacity="0.7"/>
<path d="M87.3272 11.1491C86.5417 11.1491 85.8656 10.9901 85.2988 10.6719C84.7354 10.3504 84.3012 9.8963 83.9963 9.30965C83.6913 8.71969 83.5389 8.02201 83.5389 7.21661C83.5389 6.4311 83.6913 5.74171 83.9963 5.14843C84.3012 4.55516 84.7304 4.0928 85.2839 3.76136C85.8407 3.42992 86.4937 3.2642 87.2427 3.2642C87.7465 3.2642 88.2155 3.3454 88.6497 3.50781C89.0872 3.6669 89.4683 3.90719 89.7931 4.22869C90.1213 4.55018 90.3765 4.95454 90.5588 5.44176C90.7411 5.92566 90.8322 6.49242 90.8322 7.14204V7.72372H84.384V6.41122H88.8386C88.8386 6.10629 88.7723 5.83617 88.6397 5.60085C88.5072 5.36553 88.3232 5.18158 88.0879 5.049C87.8559 4.91311 87.5858 4.84517 87.2775 4.84517C86.956 4.84517 86.671 4.91974 86.4224 5.06889C86.1771 5.21472 85.9849 5.41193 85.8457 5.66051C85.7065 5.90577 85.6352 6.17921 85.6319 6.48082V7.72869C85.6319 8.10653 85.7015 8.433 85.8407 8.70809C85.9832 8.98319 86.1838 9.19531 86.4423 9.34445C86.7008 9.4936 87.0074 9.56818 87.362 9.56818C87.5974 9.56818 87.8128 9.53503 88.0083 9.46874C88.2039 9.40246 88.3713 9.30303 88.5105 9.17045C88.6497 9.03787 88.7557 8.87547 88.8287 8.68323L90.7875 8.81249C90.688 9.28314 90.4842 9.69412 90.1759 10.0454C89.871 10.3935 89.4766 10.6652 88.9927 10.8608C88.5121 11.053 87.957 11.1491 87.3272 11.1491Z" fill="#FF6154" fill-opacity="0.7"/>
<path d="M95.6944 11.1491C94.9089 11.1491 94.2328 10.9901 93.666 10.6719C93.1026 10.3504 92.6684 9.8963 92.3634 9.30965C92.0585 8.71969 91.9061 8.02201 91.9061 7.21661C91.9061 6.4311 92.0585 5.74171 92.3634 5.14843C92.6684 4.55516 93.0976 4.0928 93.6511 3.76136C94.2079 3.42992 94.8608 3.2642 95.6099 3.2642C96.1137 3.2642 96.5827 3.3454 97.0169 3.50781C97.4544 3.6669 97.8355 3.90719 98.1603 4.22869C98.4884 4.55018 98.7437 4.95454 98.9259 5.44176C99.1082 5.92566 99.1994 6.49242 99.1994 7.14204V7.72372H92.7512V6.41122H97.2058C97.2058 6.10629 97.1395 5.83617 97.0069 5.60085C96.8743 5.36553 96.6904 5.18158 96.4551 5.049C96.2231 4.91311 95.9529 4.84517 95.6447 4.84517C95.3232 4.84517 95.0382 4.91974 94.7896 5.06889C94.5443 5.21472 94.3521 5.41193 94.2129 5.66051C94.0737 5.90577 94.0024 6.17921 93.9991 6.48082V7.72869C93.9991 8.10653 94.0687 8.433 94.2079 8.70809C94.3504 8.98319 94.551 9.19531 94.8095 9.34445C95.068 9.4936 95.3746 9.56818 95.7292 9.56818C95.9645 9.56818 96.18 9.53503 96.3755 9.46874C96.5711 9.40246 96.7385 9.30303 96.8777 9.17045C97.0169 9.03787 97.1229 8.87547 97.1958 8.68323L99.1546 8.81249C99.0552 9.28314 98.8514 9.69412 98.5431 10.0454C98.2382 10.3935 97.8438 10.6652 97.3599 10.8608C96.8793 11.053 96.3242 11.1491 95.6944 11.1491Z" fill="#FF6154" fill-opacity="0.7"/>
<path d="M103.395 11.1243C102.815 11.1243 102.29 10.9751 101.819 10.6768C101.352 10.3752 100.981 9.93276 100.706 9.34943C100.434 8.76278 100.298 8.04356 100.298 7.19176C100.298 6.31676 100.439 5.58925 100.721 5.00923C101.002 4.42589 101.377 3.99005 101.844 3.7017C102.315 3.41003 102.83 3.2642 103.39 3.2642C103.818 3.2642 104.174 3.33712 104.459 3.48295C104.748 3.62547 104.98 3.80445 105.155 4.01988C105.334 4.232 105.47 4.44081 105.563 4.6463H105.628V0.818176H107.741V11H105.653V9.77698H105.563C105.464 9.9891 105.323 10.1996 105.14 10.4084C104.961 10.6139 104.728 10.7846 104.439 10.9204C104.154 11.0563 103.806 11.1243 103.395 11.1243ZM104.067 9.43892C104.408 9.43892 104.696 9.34611 104.932 9.16051C105.17 8.97159 105.353 8.70809 105.479 8.37002C105.608 8.03195 105.672 7.63588 105.672 7.18181C105.672 6.72774 105.609 6.33333 105.483 5.99857C105.358 5.66382 105.175 5.4053 104.937 5.22301C104.698 5.04071 104.408 4.94957 104.067 4.94957C103.719 4.94957 103.425 5.04403 103.187 5.23295C102.948 5.42187 102.767 5.68371 102.645 6.01846C102.522 6.35321 102.461 6.741 102.461 7.18181C102.461 7.62594 102.522 8.0187 102.645 8.36008C102.771 8.69815 102.951 8.9633 103.187 9.15553C103.425 9.34446 103.719 9.43892 104.067 9.43892Z" fill="#FF6154" fill-opacity="0.7"/>
<path d="M114.03 13.8636C113.761 13.8636 113.509 13.8421 113.274 13.799C113.042 13.7592 112.85 13.7079 112.697 13.6449L113.175 12.0639C113.423 12.1401 113.647 12.1816 113.846 12.1882C114.048 12.1948 114.222 12.1484 114.368 12.049C114.517 11.9496 114.638 11.7805 114.731 11.5419L114.855 11.2187L112.116 3.36363H114.343L115.924 8.97159H116.003L117.599 3.36363H119.841L116.873 11.8253C116.731 12.2363 116.537 12.5942 116.292 12.8991C116.05 13.2074 115.743 13.4444 115.372 13.6101C115.001 13.7791 114.553 13.8636 114.03 13.8636Z" fill="#FF6154" fill-opacity="0.7"/>
<path d="M124.129 11.1491C123.357 11.1491 122.689 10.9851 122.126 10.657C121.566 10.3255 121.133 9.86481 120.828 9.27485C120.523 8.68158 120.371 7.99384 120.371 7.21164C120.371 6.42282 120.523 5.73342 120.828 5.14346C121.133 4.55018 121.566 4.08948 122.126 3.76136C122.689 3.42992 123.357 3.2642 124.129 3.2642C124.902 3.2642 125.568 3.42992 126.128 3.76136C126.691 4.08948 127.126 4.55018 127.431 5.14346C127.735 5.73342 127.888 6.42282 127.888 7.21164C127.888 7.99384 127.735 8.68158 127.431 9.27485C127.126 9.86481 126.691 10.3255 126.128 10.657C125.568 10.9851 124.902 11.1491 124.129 11.1491ZM124.139 9.50852C124.491 9.50852 124.784 9.40909 125.019 9.21022C125.255 9.00804 125.432 8.73295 125.551 8.38494C125.674 8.03693 125.735 7.64086 125.735 7.19673C125.735 6.7526 125.674 6.35653 125.551 6.00852C125.432 5.66051 125.255 5.38541 125.019 5.18323C124.784 4.98106 124.491 4.87997 124.139 4.87997C123.785 4.87997 123.486 4.98106 123.244 5.18323C123.006 5.38541 122.825 5.66051 122.703 6.00852C122.583 6.35653 122.524 6.7526 122.524 7.19673C122.524 7.64086 122.583 8.03693 122.703 8.38494C122.825 8.73295 123.006 9.00804 123.244 9.21022C123.486 9.40909 123.785 9.50852 124.139 9.50852Z" fill="#FF6154" fill-opacity="0.7"/>
<path d="M134.162 7.74857V3.36363H136.28V11H134.247V9.61292H134.167C133.995 10.0604 133.708 10.42 133.307 10.6918C132.909 10.9635 132.424 11.0994 131.85 11.0994C131.34 11.0994 130.891 10.9834 130.503 10.7514C130.115 10.5194 129.812 10.1896 129.593 9.76207C129.378 9.33451 129.268 8.82244 129.265 8.22585V3.36363H131.383V7.84801C131.386 8.29876 131.507 8.65506 131.746 8.9169C131.985 9.17873 132.304 9.30965 132.705 9.30965C132.961 9.30965 133.199 9.25165 133.421 9.13565C133.643 9.01633 133.822 8.84067 133.958 8.60866C134.097 8.37665 134.165 8.08996 134.162 7.74857Z" fill="#FF6154" fill-opacity="0.7"/>
<path d="M137.974 11V3.36363H140.027V4.69602H140.107C140.246 4.22206 140.48 3.8641 140.808 3.62215C141.136 3.37689 141.514 3.25426 141.941 3.25426C142.047 3.25426 142.162 3.26088 142.284 3.27414C142.407 3.2874 142.515 3.30563 142.608 3.32883V5.20809C142.508 5.17826 142.371 5.15175 142.195 5.12855C142.019 5.10535 141.859 5.09374 141.713 5.09374C141.401 5.09374 141.123 5.16169 140.877 5.29758C140.636 5.43016 140.443 5.61576 140.301 5.8544C140.162 6.09303 140.092 6.36813 140.092 6.67968V11H137.974Z" fill="#FF6154" fill-opacity="0.7"/>
<path d="M153.297 5.54119L151.358 5.66051C151.324 5.49479 151.253 5.34564 151.144 5.21306C151.034 5.07717 150.89 4.96945 150.711 4.88991C150.536 4.80705 150.325 4.76562 150.08 4.76562C149.752 4.76562 149.475 4.83522 149.25 4.97443C149.024 5.11032 148.912 5.29261 148.912 5.5213C148.912 5.70359 148.984 5.85771 149.13 5.98366C149.276 6.10961 149.526 6.2107 149.881 6.28693L151.263 6.56534C152.006 6.7178 152.559 6.96306 152.924 7.30113C153.288 7.6392 153.471 8.08333 153.471 8.63352C153.471 9.13399 153.323 9.57315 153.028 9.95099C152.736 10.3288 152.335 10.6238 151.825 10.8359C151.318 11.0447 150.733 11.1491 150.07 11.1491C149.059 11.1491 148.254 10.9387 147.654 10.5178C147.057 10.0935 146.707 9.5168 146.605 8.78764L148.688 8.67826C148.751 8.9865 148.903 9.22182 149.145 9.38423C149.387 9.54332 149.697 9.62286 150.075 9.62286C150.446 9.62286 150.744 9.5516 150.97 9.40909C151.199 9.26325 151.314 9.07599 151.318 8.8473C151.314 8.65506 151.233 8.49763 151.074 8.37499C150.915 8.24905 150.67 8.15293 150.338 8.08664L149.016 7.82315C148.27 7.674 147.715 7.41548 147.35 7.04758C146.989 6.67968 146.809 6.2107 146.809 5.64062C146.809 5.15009 146.941 4.7275 147.206 4.37286C147.475 4.01822 147.851 3.74479 148.335 3.55255C148.822 3.36032 149.392 3.2642 150.045 3.2642C151.01 3.2642 151.769 3.46803 152.322 3.8757C152.879 4.28338 153.204 4.83854 153.297 5.54119Z" fill="#FF6154" fill-opacity="0.7"/>
<path d="M159.701 7.74857V3.36363H161.819V11H159.786V9.61292H159.706C159.534 10.0604 159.247 10.42 158.846 10.6918C158.448 10.9635 157.963 11.0994 157.389 11.0994C156.879 11.0994 156.43 10.9834 156.042 10.7514C155.654 10.5194 155.351 10.1896 155.132 9.76207C154.917 9.33451 154.807 8.82244 154.804 8.22585V3.36363H156.922V7.84801C156.925 8.29876 157.046 8.65506 157.285 8.9169C157.524 9.17873 157.843 9.30965 158.244 9.30965C158.5 9.30965 158.738 9.25165 158.96 9.13565C159.182 9.01633 159.361 8.84067 159.497 8.60866C159.637 8.37665 159.704 8.08996 159.701 7.74857Z" fill="#FF6154" fill-opacity="0.7"/>
<path d="M163.513 13.8636V3.36363H165.601V4.6463H165.696C165.788 4.44081 165.923 4.232 166.098 4.01988C166.277 3.80445 166.509 3.62547 166.794 3.48295C167.083 3.33712 167.441 3.2642 167.868 3.2642C168.425 3.2642 168.939 3.41003 169.409 3.7017C169.88 3.99005 170.256 4.42589 170.538 5.00923C170.82 5.58925 170.961 6.31676 170.961 7.19176C170.961 8.04356 170.823 8.76278 170.548 9.34943C170.276 9.93276 169.905 10.3752 169.434 10.6768C168.967 10.9751 168.443 11.1243 167.863 11.1243C167.452 11.1243 167.103 11.0563 166.814 10.9204C166.529 10.7846 166.296 10.6139 166.113 10.4084C165.931 10.1996 165.792 9.9891 165.696 9.77698H165.631V13.8636H163.513ZM165.586 7.18181C165.586 7.63588 165.649 8.03195 165.775 8.37002C165.901 8.70809 166.083 8.97159 166.322 9.16051C166.561 9.34611 166.851 9.43892 167.192 9.43892C167.537 9.43892 167.828 9.34446 168.067 9.15553C168.306 8.9633 168.486 8.69815 168.609 8.36008C168.735 8.0187 168.798 7.62594 168.798 7.18181C168.798 6.741 168.737 6.35321 168.614 6.01846C168.491 5.68371 168.311 5.42187 168.072 5.23295C167.833 5.04403 167.54 4.94957 167.192 4.94957C166.847 4.94957 166.556 5.04071 166.317 5.22301C166.082 5.4053 165.901 5.66382 165.775 5.99857C165.649 6.33333 165.586 6.72774 165.586 7.18181Z" fill="#FF6154" fill-opacity="0.7"/>
<path d="M172.372 13.8636V3.36363H174.461V4.6463H174.555C174.648 4.44081 174.782 4.232 174.958 4.01988C175.137 3.80445 175.369 3.62547 175.654 3.48295C175.942 3.33712 176.3 3.2642 176.728 3.2642C177.284 3.2642 177.798 3.41003 178.269 3.7017C178.739 3.99005 179.116 4.42589 179.397 5.00923C179.679 5.58925 179.82 6.31676 179.82 7.19176C179.82 8.04356 179.682 8.76278 179.407 9.34943C179.136 9.93276 178.764 10.3752 178.294 10.6768C177.826 10.9751 177.303 11.1243 176.723 11.1243C176.312 11.1243 175.962 11.0563 175.674 10.9204C175.389 10.7846 175.155 10.6139 174.973 10.4084C174.79 10.1996 174.651 9.9891 174.555 9.77698H174.49V13.8636H172.372ZM174.446 7.18181C174.446 7.63588 174.509 8.03195 174.635 8.37002C174.761 8.70809 174.943 8.97159 175.181 9.16051C175.42 9.34611 175.71 9.43892 176.051 9.43892C176.396 9.43892 176.688 9.34446 176.926 9.15553C177.165 8.9633 177.346 8.69815 177.468 8.36008C177.594 8.0187 177.657 7.62594 177.657 7.18181C177.657 6.741 177.596 6.35321 177.473 6.01846C177.351 5.68371 177.17 5.42187 176.931 5.23295C176.693 5.04403 176.399 4.94957 176.051 4.94957C175.707 4.94957 175.415 5.04071 175.176 5.22301C174.941 5.4053 174.761 5.66382 174.635 5.99857C174.509 6.33333 174.446 6.72774 174.446 7.18181Z" fill="#FF6154" fill-opacity="0.7"/>
<path d="M184.682 11.1491C183.91 11.1491 183.242 10.9851 182.679 10.657C182.118 10.3255 181.686 9.86481 181.381 9.27485C181.076 8.68158 180.924 7.99384 180.924 7.21164C180.924 6.42282 181.076 5.73342 181.381 5.14346C181.686 4.55018 182.118 4.08948 182.679 3.76136C183.242 3.42992 183.91 3.2642 184.682 3.2642C185.454 3.2642 186.121 3.42992 186.681 3.76136C187.244 4.08948 187.678 4.55018 187.983 5.14346C188.288 5.73342 188.441 6.42282 188.441 7.21164C188.441 7.99384 188.288 8.68158 187.983 9.27485C187.678 9.86481 187.244 10.3255 186.681 10.657C186.121 10.9851 185.454 11.1491 184.682 11.1491ZM184.692 9.50852C185.043 9.50852 185.337 9.40909 185.572 9.21022C185.807 9.00804 185.985 8.73295 186.104 8.38494C186.227 8.03693 186.288 7.64086 186.288 7.19673C186.288 6.7526 186.227 6.35653 186.104 6.00852C185.985 5.66051 185.807 5.38541 185.572 5.18323C185.337 4.98106 185.043 4.87997 184.692 4.87997C184.337 4.87997 184.039 4.98106 183.797 5.18323C183.559 5.38541 183.378 5.66051 183.255 6.00852C183.136 6.35653 183.076 6.7526 183.076 7.19673C183.076 7.64086 183.136 8.03693 183.255 8.38494C183.378 8.73295 183.559 9.00804 183.797 9.21022C184.039 9.40909 184.337 9.50852 184.692 9.50852Z" fill="#FF6154" fill-opacity="0.7"/>
<path d="M189.818 11V3.36363H191.871V4.69602H191.951C192.09 4.22206 192.324 3.8641 192.652 3.62215C192.98 3.37689 193.358 3.25426 193.785 3.25426C193.891 3.25426 194.006 3.26088 194.128 3.27414C194.251 3.2874 194.359 3.30563 194.451 3.32883V5.20809C194.352 5.17826 194.214 5.15175 194.039 5.12855C193.863 5.10535 193.702 5.09374 193.556 5.09374C193.245 5.09374 192.967 5.16169 192.721 5.29758C192.479 5.43016 192.287 5.61576 192.145 5.8544C192.005 6.09303 191.936 6.36813 191.936 6.67968V11H189.818Z" fill="#FF6154" fill-opacity="0.7"/>
<path d="M199.991 3.36363V4.95454H195.392V3.36363H199.991ZM196.436 1.53409H198.554V8.6534C198.554 8.84895 198.584 9.00142 198.644 9.11079C198.703 9.21685 198.786 9.29142 198.892 9.33451C199.002 9.3776 199.128 9.39914 199.27 9.39914C199.369 9.39914 199.469 9.39086 199.568 9.37428C199.668 9.3544 199.744 9.33948 199.797 9.32954L200.13 10.9055C200.024 10.9387 199.875 10.9768 199.683 11.0199C199.49 11.0663 199.257 11.0945 198.982 11.1044C198.471 11.1243 198.024 11.0563 197.639 10.9006C197.258 10.7448 196.962 10.5028 196.749 10.1747C196.537 9.84659 196.433 9.43229 196.436 8.93181V1.53409Z" fill="#FF6154" fill-opacity="0.7"/>
<path d="M208.061 11.1491C207.289 11.1491 206.621 10.9851 206.058 10.657C205.497 10.3255 205.065 9.86481 204.76 9.27485C204.455 8.68158 204.303 7.99384 204.303 7.21164C204.303 6.42282 204.455 5.73342 204.76 5.14346C205.065 4.55018 205.497 4.08948 206.058 3.76136C206.621 3.42992 207.289 3.2642 208.061 3.2642C208.833 3.2642 209.5 3.42992 210.06 3.76136C210.623 4.08948 211.057 4.55018 211.362 5.14346C211.667 5.73342 211.82 6.42282 211.82 7.21164C211.82 7.99384 211.667 8.68158 211.362 9.27485C211.057 9.86481 210.623 10.3255 210.06 10.657C209.5 10.9851 208.833 11.1491 208.061 11.1491ZM208.071 9.50852C208.422 9.50852 208.716 9.40909 208.951 9.21022C209.186 9.00804 209.364 8.73295 209.483 8.38494C209.606 8.03693 209.667 7.64086 209.667 7.19673C209.667 6.7526 209.606 6.35653 209.483 6.00852C209.364 5.66051 209.186 5.38541 208.951 5.18323C208.716 4.98106 208.422 4.87997 208.071 4.87997C207.716 4.87997 207.418 4.98106 207.176 5.18323C206.937 5.38541 206.757 5.66051 206.634 6.00852C206.515 6.35653 206.455 6.7526 206.455 7.19673C206.455 7.64086 206.515 8.03693 206.634 8.38494C206.757 8.73295 206.937 9.00804 207.176 9.21022C207.418 9.40909 207.716 9.50852 208.071 9.50852Z" fill="#FF6154" fill-opacity="0.7"/>
<path d="M215.315 6.58522V11H213.197V3.36363H215.215V4.71093H215.305C215.474 4.2668 215.757 3.91548 216.155 3.65695C216.553 3.39512 217.035 3.2642 217.602 3.2642C218.132 3.2642 218.594 3.3802 218.989 3.61221C219.383 3.84422 219.69 4.17566 219.908 4.60653C220.127 5.03409 220.236 5.5445 220.236 6.13778V11H218.119V6.51562C218.122 6.04829 218.003 5.68371 217.761 5.42187C217.519 5.15672 217.186 5.02414 216.761 5.02414C216.476 5.02414 216.224 5.08546 216.006 5.20809C215.79 5.33072 215.621 5.5097 215.499 5.74502C215.379 5.97703 215.318 6.2571 215.315 6.58522Z" fill="#FF6154" fill-opacity="0.7"/>
<path d="M22.4941 14.5889C24.1314 14.5889 25.4588 15.9312 25.459 17.5879C25.459 19.2447 24.1315 20.5879 22.4941 20.5879L16.8945 20.5889V14.5889H22.4941Z" fill="#FF6154"/>
<path fill-rule="evenodd" clip-rule="evenodd" d="M20 0C31.0457 3.22131e-07 40 8.95433 40 20C40 31.0457 31.0457 40 20 40C8.95433 40 3.22152e-07 31.0457 0 20C0 8.95433 8.95433 0 20 0ZM12.9414 30.5879H16.8945V24.5889H22.4941C26.3147 24.5889 29.4121 21.4539 29.4121 17.5879C29.4119 13.7221 26.3145 10.5879 22.4941 10.5879H12.9414V30.5879Z" fill="#FF6154"/>
<path d="M50.5803 39.5V21.3182H57.7536C59.1326 21.3182 60.3074 21.5816 61.2781 22.1083C62.2487 22.6291 62.9885 23.3542 63.4975 24.2834C64.0124 25.2067 64.2699 26.272 64.2699 27.4794C64.2699 28.6868 64.0095 29.7521 63.4886 30.6754C62.9678 31.5987 62.2132 32.3178 61.2248 32.8327C60.2423 33.3477 59.0527 33.6051 57.6559 33.6051H53.0838V30.5245H57.0345C57.7743 30.5245 58.3839 30.3972 58.8633 30.1427C59.3486 29.8823 59.7096 29.5243 59.9464 29.0685C60.189 28.6069 60.3104 28.0772 60.3104 27.4794C60.3104 26.8757 60.189 26.349 59.9464 25.8991C59.7096 25.4434 59.3486 25.0913 58.8633 24.8427C58.378 24.5882 57.7624 24.4609 57.0167 24.4609H54.4244V39.5H50.5803Z" fill="#FF6154"/>
<path d="M66.6958 39.5V25.8636H70.3623V28.2429H70.5044C70.7529 27.3965 71.1702 26.7573 71.7561 26.3253C72.3421 25.8873 73.0168 25.6683 73.7803 25.6683C73.9697 25.6683 74.1739 25.6802 74.3929 25.7038C74.6118 25.7275 74.8042 25.7601 74.9699 25.8015V29.1573C74.7924 29.104 74.5467 29.0567 74.233 29.0153C73.9194 28.9738 73.6323 28.9531 73.3719 28.9531C72.8156 28.9531 72.3184 29.0745 71.8804 29.3171C71.4484 29.5539 71.1051 29.8853 70.8506 30.3114C70.602 30.7376 70.4777 31.2288 70.4777 31.7852V39.5H66.6958Z" fill="#FF6154"/>
<path d="M82.4517 39.7663C81.0727 39.7663 79.8801 39.4734 78.8739 38.8874C77.8737 38.2956 77.1013 37.4729 76.5568 36.4194C76.0123 35.36 75.7401 34.1319 75.7401 32.7351C75.7401 31.3265 76.0123 30.0954 76.5568 29.0419C77.1013 27.9825 77.8737 27.1598 78.8739 26.5739C79.8801 25.982 81.0727 25.6861 82.4517 25.6861C83.8307 25.6861 85.0204 25.982 86.0206 26.5739C87.0268 27.1598 87.8021 27.9825 88.3466 29.0419C88.8911 30.0954 89.1634 31.3265 89.1634 32.7351C89.1634 34.1319 88.8911 35.36 88.3466 36.4194C87.8021 37.4729 87.0268 38.2956 86.0206 38.8874C85.0204 39.4734 83.8307 39.7663 82.4517 39.7663ZM82.4695 36.8366C83.0968 36.8366 83.6206 36.6591 84.0408 36.304C84.4611 35.9429 84.7777 35.4517 84.9908 34.8302C85.2098 34.2088 85.3193 33.5015 85.3193 32.7084C85.3193 31.9154 85.2098 31.2081 84.9908 30.5866C84.7777 29.9652 84.4611 29.474 84.0408 29.1129C83.6206 28.7519 83.0968 28.5714 82.4695 28.5714C81.8362 28.5714 81.3035 28.7519 80.8715 29.1129C80.4453 29.474 80.1228 29.9652 79.9038 30.5866C79.6907 31.2081 79.5842 31.9154 79.5842 32.7084C79.5842 33.5015 79.6907 34.2088 79.9038 34.8302C80.1228 35.4517 80.4453 35.9429 80.8715 36.304C81.3035 36.6591 81.8362 36.8366 82.4695 36.8366Z" fill="#FF6154"/>
<path d="M96.6474 39.7219C95.6116 39.7219 94.6735 39.4556 93.8331 38.9229C92.9986 38.3843 92.3357 37.5942 91.8445 36.5526C91.3591 35.505 91.1165 34.2206 91.1165 32.6996C91.1165 31.1371 91.368 29.8379 91.8711 28.8022C92.3742 27.7605 93.043 26.9822 93.8775 26.4673C94.7179 25.9465 95.6383 25.6861 96.6385 25.6861C97.402 25.6861 98.0382 25.8163 98.5472 26.0767C99.0622 26.3312 99.4764 26.6508 99.7901 27.0355C100.11 27.4143 100.352 27.7872 100.518 28.1541H100.634V21.3182H104.407V39.5H100.678V37.316H100.518C100.341 37.6948 100.089 38.0707 99.7635 38.4435C99.4439 38.8105 99.0266 39.1153 98.5117 39.3579C98.0027 39.6006 97.3813 39.7219 96.6474 39.7219ZM97.8459 36.7124C98.4555 36.7124 98.9704 36.5466 99.3906 36.2152C99.8168 35.8778 100.142 35.4073 100.367 34.8036C100.598 34.1999 100.713 33.4927 100.713 32.6818C100.713 31.871 100.601 31.1667 100.376 30.5689C100.151 29.9711 99.8256 29.5095 99.3995 29.1839C98.9734 28.8584 98.4555 28.6957 97.8459 28.6957C97.2244 28.6957 96.7006 28.8643 96.2745 29.2017C95.8484 29.5391 95.5258 30.0066 95.3068 30.6044C95.0878 31.2022 94.9783 31.8946 94.9783 32.6818C94.9783 33.4749 95.0878 34.1763 95.3068 34.7859C95.5317 35.3896 95.8543 35.863 96.2745 36.2063C96.7006 36.5437 97.2244 36.7124 97.8459 36.7124Z" fill="#FF6154"/>
<path d="M116.261 33.6939V25.8636H120.043V39.5H116.412V37.0231H116.27C115.962 37.8221 115.45 38.4642 114.734 38.9496C114.024 39.4349 113.156 39.6776 112.133 39.6776C111.221 39.6776 110.419 39.4704 109.727 39.0561C109.034 38.6418 108.493 38.0529 108.102 37.2894C107.717 36.5259 107.522 35.6115 107.516 34.5462V25.8636H111.298V33.8714C111.304 34.6764 111.52 35.3126 111.946 35.7802C112.372 36.2477 112.943 36.4815 113.66 36.4815C114.115 36.4815 114.541 36.378 114.938 36.1708C115.334 35.9577 115.654 35.6441 115.897 35.2298C116.145 34.8155 116.267 34.3035 116.261 33.6939Z" fill="#FF6154"/>
<path d="M129.229 39.7663C127.832 39.7663 126.631 39.4704 125.625 38.8785C124.624 38.2808 123.855 37.4522 123.316 36.3927C122.784 35.3333 122.517 34.1141 122.517 32.7351C122.517 31.3383 122.787 30.1132 123.325 29.0597C123.87 28.0002 124.642 27.1746 125.642 26.5827C126.643 25.985 127.832 25.6861 129.211 25.6861C130.401 25.6861 131.443 25.9021 132.336 26.3342C133.23 26.7662 133.937 27.3729 134.458 28.1541C134.979 28.9354 135.266 29.8527 135.319 30.9062H131.75C131.65 30.2256 131.383 29.6781 130.951 29.2638C130.525 28.8436 129.966 28.6335 129.273 28.6335C128.688 28.6335 128.176 28.7933 127.738 29.1129C127.306 29.4266 126.968 29.8853 126.726 30.489C126.483 31.0927 126.362 31.8236 126.362 32.6818C126.362 33.5518 126.48 34.2917 126.717 34.9013C126.959 35.5109 127.3 35.9755 127.738 36.2951C128.176 36.6147 128.688 36.7745 129.273 36.7745C129.705 36.7745 130.093 36.6857 130.436 36.5082C130.786 36.3306 131.073 36.0731 131.298 35.7358C131.528 35.3925 131.679 34.9812 131.75 34.5018H135.319C135.26 35.5434 134.976 36.4608 134.467 37.2539C133.964 38.0411 133.268 38.6566 132.381 39.1005C131.493 39.5444 130.442 39.7663 129.229 39.7663Z" fill="#FF6154"/>
<path d="M144.994 25.8636V28.7045H136.782V25.8636H144.994ZM138.646 22.5966H142.428V35.3097C142.428 35.6588 142.481 35.9311 142.588 36.1264C142.695 36.3158 142.842 36.449 143.032 36.5259C143.227 36.6029 143.452 36.6413 143.707 36.6413C143.884 36.6413 144.062 36.6265 144.239 36.5969C144.417 36.5614 144.553 36.5348 144.648 36.517L145.242 39.3313C145.053 39.3905 144.787 39.4586 144.443 39.5355C144.1 39.6184 143.683 39.6687 143.192 39.6864C142.28 39.7219 141.481 39.6006 140.795 39.3224C140.114 39.0443 139.584 38.6122 139.206 38.0263C138.827 37.4403 138.64 36.7005 138.646 35.8068V22.5966Z" fill="#FF6154"/>
<path d="M153.315 39.5V21.3182H157.159V28.82H164.962V21.3182H168.798V39.5H164.962V31.9893H157.159V39.5H153.315Z" fill="#FF6154"/>
<path d="M180.641 33.6939V25.8636H184.423V39.5H180.792V37.0231H180.65C180.342 37.8221 179.83 38.4642 179.114 38.9496C178.403 39.4349 177.536 39.6776 176.512 39.6776C175.601 39.6776 174.799 39.4704 174.107 39.0561C173.414 38.6418 172.873 38.0529 172.482 37.2894C172.097 36.5259 171.902 35.6115 171.896 34.5462V25.8636H175.678V33.8714C175.684 34.6764 175.9 35.3126 176.326 35.7802C176.752 36.2477 177.323 36.4815 178.039 36.4815C178.495 36.4815 178.921 36.378 179.318 36.1708C179.714 35.9577 180.034 35.6441 180.277 35.2298C180.525 34.8155 180.647 34.3035 180.641 33.6939Z" fill="#FF6154"/>
<path d="M191.23 31.6165V39.5H187.448V25.8636H191.052V28.2695H191.212C191.514 27.4764 192.02 26.8491 192.73 26.3874C193.44 25.9199 194.301 25.6861 195.313 25.6861C196.26 25.6861 197.086 25.8932 197.79 26.3075C198.495 26.7218 199.042 27.3137 199.433 28.0831C199.823 28.8466 200.019 29.758 200.019 30.8175V39.5H196.237V31.4922C196.243 30.6577 196.03 30.0066 195.598 29.5391C195.166 29.0656 194.571 28.8288 193.813 28.8288C193.304 28.8288 192.854 28.9383 192.464 29.1573C192.079 29.3763 191.777 29.6959 191.558 30.1161C191.345 30.5304 191.236 31.0305 191.23 31.6165Z" fill="#FF6154"/>
<path d="M210.253 25.8636V28.7045H202.041V25.8636H210.253ZM203.905 22.5966H207.687V35.3097C207.687 35.6588 207.74 35.9311 207.847 36.1264C207.953 36.3158 208.101 36.449 208.291 36.5259C208.486 36.6029 208.711 36.6413 208.965 36.6413C209.143 36.6413 209.32 36.6265 209.498 36.5969C209.676 36.5614 209.812 36.5348 209.906 36.517L210.501 39.3313C210.312 39.3905 210.046 39.4586 209.702 39.5355C209.359 39.6184 208.942 39.6687 208.45 39.6864C207.539 39.7219 206.74 39.6006 206.053 39.3224C205.373 39.0443 204.843 38.6122 204.464 38.0263C204.086 37.4403 203.899 36.7005 203.905 35.8068V22.5966Z" fill="#FF6154"/>
</svg>
