<svg width="211" height="40" viewBox="0 0 211 40" fill="none" xmlns="http://www.w3.org/2000/svg">
<path d="M20 0C31.0457 3.22131e-07 40 8.95433 40 20C40 31.0457 31.0457 40 20 40C8.95433 40 3.22152e-07 31.0457 0 20C0 8.95433 8.95433 0 20 0ZM12.9414 30.5879H16.8945V24.5889H22.4941C26.3147 24.5889 29.4121 21.4539 29.4121 17.5879C29.4119 13.7221 26.3145 10.5879 22.4941 10.5879H12.9414V30.5879ZM22.4941 14.5889C24.1314 14.5889 25.4588 15.9312 25.459 17.5879C25.459 19.2447 24.1315 20.5879 22.4941 20.5879L16.8945 20.5889V14.5889H22.4941Z" fill="#FF6154"/>
<path d="M50.5803 39.5V21.3182H57.7536C59.1326 21.3182 60.3074 21.5816 61.2781 22.1083C62.2487 22.6291 62.9885 23.3542 63.4975 24.2834C64.0124 25.2067 64.2699 26.272 64.2699 27.4794C64.2699 28.6868 64.0095 29.7521 63.4886 30.6754C62.9678 31.5987 62.2132 32.3178 61.2248 32.8327C60.2423 33.3477 59.0527 33.6051 57.6559 33.6051H53.0838V30.5245H57.0345C57.7743 30.5245 58.3839 30.3972 58.8633 30.1428C59.3486 29.8823 59.7096 29.5243 59.9464 29.0685C60.189 28.6069 60.3104 28.0772 60.3104 27.4794C60.3104 26.8757 60.189 26.349 59.9464 25.8991C59.7096 25.4434 59.3486 25.0913 58.8633 24.8427C58.378 24.5882 57.7624 24.4609 57.0167 24.4609H54.4244V39.5H50.5803Z" fill="#FF6154"/>
<path d="M66.6958 39.5V25.8636H70.3623V28.2429H70.5044C70.7529 27.3965 71.1702 26.7573 71.7561 26.3253C72.3421 25.8873 73.0168 25.6683 73.7803 25.6683C73.9697 25.6683 74.1739 25.6802 74.3929 25.7038C74.6118 25.7275 74.8042 25.7601 74.9699 25.8015V29.1573C74.7924 29.104 74.5467 29.0567 74.233 29.0153C73.9194 28.9738 73.6323 28.9531 73.3719 28.9531C72.8156 28.9531 72.3184 29.0745 71.8804 29.3171C71.4484 29.5539 71.1051 29.8853 70.8506 30.3114C70.602 30.7376 70.4777 31.2288 70.4777 31.7852V39.5H66.6958Z" fill="#FF6154"/>
<path d="M82.4517 39.7663C81.0727 39.7663 79.8801 39.4734 78.8739 38.8874C77.8737 38.2956 77.1013 37.4729 76.5568 36.4194C76.0123 35.36 75.7401 34.1319 75.7401 32.7351C75.7401 31.3265 76.0123 30.0954 76.5568 29.0419C77.1013 27.9825 77.8737 27.1598 78.8739 26.5739C79.8801 25.982 81.0727 25.6861 82.4517 25.6861C83.8307 25.6861 85.0204 25.982 86.0206 26.5739C87.0268 27.1598 87.8021 27.9825 88.3466 29.0419C88.8911 30.0954 89.1634 31.3265 89.1634 32.7351C89.1634 34.1319 88.8911 35.36 88.3466 36.4194C87.8021 37.4729 87.0268 38.2956 86.0206 38.8874C85.0204 39.4734 83.8307 39.7663 82.4517 39.7663ZM82.4695 36.8366C83.0968 36.8366 83.6206 36.6591 84.0408 36.304C84.4611 35.9429 84.7777 35.4517 84.9908 34.8303C85.2098 34.2088 85.3193 33.5015 85.3193 32.7084C85.3193 31.9154 85.2098 31.2081 84.9908 30.5866C84.7777 29.9652 84.4611 29.474 84.0408 29.1129C83.6206 28.7519 83.0968 28.5714 82.4695 28.5714C81.8362 28.5714 81.3035 28.7519 80.8715 29.1129C80.4453 29.474 80.1228 29.9652 79.9038 30.5866C79.6907 31.2081 79.5842 31.9154 79.5842 32.7084C79.5842 33.5015 79.6907 34.2088 79.9038 34.8303C80.1228 35.4517 80.4453 35.9429 80.8715 36.304C81.3035 36.6591 81.8362 36.8366 82.4695 36.8366Z" fill="#FF6154"/>
<path d="M96.6474 39.7219C95.6116 39.7219 94.6735 39.4556 93.8331 38.9229C92.9986 38.3843 92.3357 37.5942 91.8445 36.5526C91.3591 35.505 91.1165 34.2206 91.1165 32.6996C91.1165 31.1371 91.368 29.8379 91.8711 28.8022C92.3742 27.7605 93.043 26.9822 93.8775 26.4673C94.7179 25.9465 95.6383 25.6861 96.6385 25.6861C97.402 25.6861 98.0382 25.8163 98.5472 26.0767C99.0622 26.3312 99.4765 26.6508 99.7901 27.0355C100.11 27.4143 100.352 27.7872 100.518 28.1541H100.634V21.3182H104.407V39.5H100.678V37.316H100.518C100.341 37.6948 100.089 38.0707 99.7635 38.4435C99.4439 38.8105 99.0266 39.1153 98.5117 39.358C98.0027 39.6006 97.3813 39.7219 96.6474 39.7219ZM97.8459 36.7124C98.4555 36.7124 98.9704 36.5466 99.3906 36.2152C99.8168 35.8778 100.142 35.4073 100.367 34.8036C100.598 34.1999 100.713 33.4927 100.713 32.6818C100.713 31.871 100.601 31.1667 100.376 30.5689C100.151 29.9711 99.8256 29.5095 99.3995 29.1839C98.9734 28.8584 98.4555 28.6957 97.8459 28.6957C97.2244 28.6957 96.7006 28.8643 96.2745 29.2017C95.8484 29.5391 95.5258 30.0066 95.3068 30.6044C95.0878 31.2022 94.9783 31.8946 94.9783 32.6818C94.9783 33.4749 95.0878 34.1762 95.3068 34.7859C95.5317 35.3896 95.8543 35.863 96.2745 36.2063C96.7006 36.5437 97.2244 36.7124 97.8459 36.7124Z" fill="#FF6154"/>
<path d="M116.261 33.6939V25.8636H120.043V39.5H116.412V37.0231H116.27C115.962 37.8221 115.45 38.4642 114.734 38.9496C114.024 39.4349 113.156 39.6776 112.133 39.6776C111.221 39.6776 110.419 39.4704 109.727 39.0561C109.034 38.6418 108.493 38.0529 108.102 37.2894C107.717 36.5259 107.522 35.6115 107.516 34.5462V25.8636H111.298V33.8714C111.304 34.6764 111.52 35.3126 111.946 35.7802C112.372 36.2477 112.943 36.4815 113.66 36.4815C114.115 36.4815 114.541 36.378 114.938 36.1708C115.334 35.9577 115.654 35.6441 115.897 35.2298C116.145 34.8155 116.267 34.3035 116.261 33.6939Z" fill="#FF6154"/>
<path d="M129.229 39.7663C127.832 39.7663 126.631 39.4704 125.625 38.8785C124.624 38.2808 123.855 37.4522 123.316 36.3928C122.784 35.3333 122.517 34.1141 122.517 32.7351C122.517 31.3383 122.787 30.1132 123.325 29.0597C123.87 28.0002 124.642 27.1746 125.642 26.5827C126.643 25.985 127.832 25.6861 129.211 25.6861C130.401 25.6861 131.443 25.9021 132.336 26.3342C133.23 26.7662 133.937 27.3729 134.458 28.1541C134.979 28.9354 135.266 29.8527 135.319 30.9062H131.75C131.65 30.2256 131.383 29.6781 130.951 29.2638C130.525 28.8436 129.966 28.6335 129.273 28.6335C128.688 28.6335 128.176 28.7933 127.738 29.1129C127.306 29.4266 126.968 29.8853 126.726 30.489C126.483 31.0927 126.362 31.8236 126.362 32.6818C126.362 33.5518 126.48 34.2917 126.717 34.9013C126.959 35.5109 127.3 35.9755 127.738 36.2951C128.176 36.6147 128.688 36.7745 129.273 36.7745C129.706 36.7745 130.093 36.6857 130.436 36.5082C130.786 36.3306 131.073 36.0731 131.298 35.7358C131.528 35.3925 131.679 34.9812 131.75 34.5018H135.319C135.26 35.5434 134.976 36.4608 134.467 37.2539C133.964 38.0411 133.268 38.6566 132.381 39.1005C131.493 39.5444 130.442 39.7663 129.229 39.7663Z" fill="#FF6154"/>
<path d="M144.994 25.8636V28.7045H136.782V25.8636H144.994ZM138.646 22.5966H142.428V35.3097C142.428 35.6588 142.481 35.9311 142.588 36.1264C142.695 36.3158 142.842 36.449 143.032 36.5259C143.227 36.6029 143.452 36.6413 143.707 36.6413C143.884 36.6413 144.062 36.6265 144.239 36.5969C144.417 36.5614 144.553 36.5348 144.648 36.517L145.242 39.3313C145.053 39.3905 144.787 39.4586 144.443 39.5355C144.1 39.6184 143.683 39.6687 143.192 39.6864C142.28 39.7219 141.481 39.6006 140.795 39.3224C140.114 39.0443 139.584 38.6122 139.206 38.0263C138.827 37.4403 138.64 36.7005 138.646 35.8068V22.5966Z" fill="#FF6154"/>
<path d="M153.315 39.5V21.3182H157.159V28.82H164.962V21.3182H168.798V39.5H164.962V31.9893H157.159V39.5H153.315Z" fill="#FF6154"/>
<path d="M180.641 33.6939V25.8636H184.423V39.5H180.792V37.0231H180.65C180.342 37.8221 179.83 38.4642 179.114 38.9496C178.403 39.4349 177.536 39.6776 176.512 39.6776C175.601 39.6776 174.799 39.4704 174.107 39.0561C173.414 38.6418 172.873 38.0529 172.482 37.2894C172.097 36.5259 171.902 35.6115 171.896 34.5462V25.8636H175.678V33.8714C175.684 34.6764 175.9 35.3126 176.326 35.7802C176.752 36.2477 177.323 36.4815 178.039 36.4815C178.495 36.4815 178.921 36.378 179.318 36.1708C179.714 35.9577 180.034 35.6441 180.277 35.2298C180.525 34.8155 180.647 34.3035 180.641 33.6939Z" fill="#FF6154"/>
<path d="M191.23 31.6165V39.5H187.448V25.8636H191.052V28.2695H191.212C191.514 27.4764 192.02 26.8491 192.73 26.3874C193.44 25.9199 194.301 25.6861 195.313 25.6861C196.26 25.6861 197.086 25.8932 197.79 26.3075C198.495 26.7218 199.042 27.3137 199.433 28.0831C199.823 28.8466 200.019 29.758 200.019 30.8175V39.5H196.237V31.4922C196.243 30.6577 196.03 30.0066 195.598 29.5391C195.166 29.0656 194.571 28.8288 193.813 28.8288C193.304 28.8288 192.854 28.9383 192.464 29.1573C192.079 29.3763 191.777 29.6959 191.558 30.1161C191.345 30.5304 191.236 31.0305 191.23 31.6165Z" fill="#FF6154"/>
<path d="M210.253 25.8636V28.7045H202.041V25.8636H210.253ZM203.905 22.5966H207.687V35.3097C207.687 35.6588 207.74 35.9311 207.847 36.1264C207.953 36.3158 208.101 36.449 208.291 36.5259C208.486 36.6029 208.711 36.6413 208.965 36.6413C209.143 36.6413 209.32 36.6265 209.498 36.5969C209.676 36.5614 209.812 36.5348 209.906 36.517L210.501 39.3313C210.312 39.3905 210.046 39.4586 209.702 39.5355C209.359 39.6184 208.942 39.6687 208.45 39.6864C207.539 39.7219 206.74 39.6006 206.053 39.3224C205.373 39.0443 204.843 38.6122 204.464 38.0263C204.086 37.4403 203.899 36.7005 203.905 35.8068V22.5966Z" fill="#FF6154"/>
<path d="M57.328 2.1L58.868 2.478C58.616 3.22467 58.28 3.93867 57.86 4.62C57.44 5.292 56.9966 5.85667 56.53 6.314C56.446 6.21133 56.3246 6.09467 56.166 5.964C56.0166 5.824 55.8626 5.68867 55.704 5.558C55.5546 5.42733 55.4193 5.32467 55.298 5.25C55.746 4.87667 56.1473 4.41 56.502 3.85C56.8566 3.29 57.132 2.70667 57.328 2.1ZM57.3 6.076L58.812 6.51C58.5693 7.042 58.266 7.56933 57.902 8.092C57.538 8.60533 57.1646 9.03933 56.782 9.394C56.6886 9.30067 56.5673 9.19333 56.418 9.072C56.2686 8.94133 56.1146 8.81533 55.956 8.694C55.7973 8.57267 55.662 8.47467 55.55 8.4C55.9046 8.11067 56.236 7.76067 56.544 7.35C56.8613 6.93 57.1133 6.50533 57.3 6.076ZM57.58 3.248H63.152V4.662H57.006L57.58 3.248ZM59.372 4.998H60.982V8.666C60.982 9.03 60.94 9.31933 60.856 9.534C60.7813 9.73933 60.618 9.898 60.366 10.01C60.1233 10.122 59.8386 10.192 59.512 10.22C59.1853 10.248 58.812 10.262 58.392 10.262C58.3546 10.038 58.2846 9.79067 58.182 9.52C58.0886 9.24 57.986 9.002 57.874 8.806C58.1353 8.81533 58.392 8.82 58.644 8.82C58.896 8.82 59.0686 8.82 59.162 8.82C59.302 8.82 59.372 8.75933 59.372 8.638V4.998ZM61.304 6.692L62.648 6.048C62.872 6.31867 63.0913 6.61267 63.306 6.93C63.5206 7.238 63.7166 7.546 63.894 7.854C64.0806 8.15267 64.2253 8.428 64.328 8.68L62.914 9.422C62.8206 9.17933 62.6853 8.89933 62.508 8.582C62.3306 8.26467 62.1393 7.938 61.934 7.602C61.7286 7.266 61.5186 6.96267 61.304 6.692ZM62.732 3.248H62.97L63.222 3.192L64.412 3.444C64.2533 3.892 64.0713 4.34933 63.866 4.816C63.67 5.28267 63.488 5.67933 63.32 6.006L61.892 5.712C62.032 5.42267 62.1813 5.06333 62.34 4.634C62.4986 4.20467 62.6293 3.808 62.732 3.444V3.248ZM54.612 2.044L56.096 2.548C55.7973 3.12667 55.4426 3.71 55.032 4.298C54.6306 4.87667 54.2013 5.418 53.744 5.922C53.2866 6.41667 52.8246 6.85067 52.358 7.224C52.2926 7.112 52.1993 6.972 52.078 6.804C51.9566 6.62667 51.8306 6.454 51.7 6.286C51.5693 6.118 51.4526 5.978 51.35 5.866C51.9846 5.40867 52.5913 4.83933 53.17 4.158C53.758 3.47667 54.2386 2.772 54.612 2.044ZM53.352 5.026L54.934 3.458L54.962 3.472V10.332H53.352V5.026ZM54.528 10.92H56.236V12.992C56.236 13.2067 56.292 13.342 56.404 13.398C56.5253 13.4447 56.7913 13.468 57.202 13.468C57.2766 13.468 57.3886 13.468 57.538 13.468C57.6966 13.468 57.874 13.468 58.07 13.468C58.2753 13.468 58.476 13.468 58.672 13.468C58.8773 13.468 59.064 13.468 59.232 13.468C59.4 13.468 59.5353 13.468 59.638 13.468C59.862 13.468 60.03 13.4353 60.142 13.37C60.2633 13.3047 60.3473 13.1647 60.394 12.95C60.45 12.726 60.4873 12.39 60.506 11.942C60.6273 12.0353 60.7766 12.124 60.954 12.208C61.1406 12.2827 61.332 12.3527 61.528 12.418C61.724 12.474 61.8966 12.5207 62.046 12.558C61.9806 13.2113 61.8686 13.7153 61.71 14.07C61.5606 14.4247 61.332 14.6673 61.024 14.798C60.716 14.9287 60.2913 14.994 59.75 14.994C59.666 14.994 59.5306 14.994 59.344 14.994C59.1666 14.994 58.9613 14.994 58.728 14.994C58.504 14.994 58.2753 14.994 58.042 14.994C57.818 14.994 57.6126 14.994 57.426 14.994C57.2486 14.994 57.118 14.994 57.034 14.994C56.3713 14.994 55.858 14.9333 55.494 14.812C55.13 14.7 54.878 14.4993 54.738 14.21C54.598 13.9207 54.528 13.524 54.528 13.02V10.92ZM56.768 10.458L58.056 9.744C58.2893 9.968 58.5273 10.2153 58.77 10.486C59.022 10.7473 59.2506 11.018 59.456 11.298C59.6613 11.5687 59.82 11.8207 59.932 12.054L58.546 12.866C58.4526 12.6327 58.308 12.376 58.112 12.096C57.916 11.816 57.7013 11.5313 57.468 11.242C57.2346 10.9527 57.0013 10.6913 56.768 10.458ZM61.458 11.144L62.928 10.57C63.1426 10.906 63.3526 11.27 63.558 11.662C63.7633 12.0447 63.9453 12.4227 64.104 12.796C64.2626 13.1693 64.3746 13.5053 64.44 13.804L62.844 14.448C62.788 14.1587 62.69 13.8227 62.55 13.44C62.41 13.0573 62.242 12.6653 62.046 12.264C61.8593 11.8627 61.6633 11.4893 61.458 11.144ZM52.806 10.864L54.318 11.48C54.1966 11.816 54.066 12.18 53.926 12.572C53.7953 12.9547 53.6553 13.328 53.506 13.692C53.3566 14.056 53.2073 14.3873 53.058 14.686L51.476 13.944C51.644 13.664 51.8073 13.3513 51.966 13.006C52.134 12.6513 52.2926 12.292 52.442 11.928C52.5913 11.5547 52.7126 11.2 52.806 10.864Z" fill="#FF6154" fill-opacity="0.7"/>
<path d="M67.002 4.382H71.3V13.804H67.002V12.334H69.788V5.838H67.002V4.382ZM66.022 4.382H67.548V14.84H66.022V4.382ZM66.946 8.12H70.516V9.576H66.946V8.12ZM68.024 2.1L69.844 2.366C69.6946 2.842 69.5313 3.31333 69.354 3.78C69.186 4.24667 69.032 4.64333 68.892 4.97L67.548 4.662C67.6133 4.41933 67.674 4.14867 67.73 3.85C67.7953 3.55133 67.856 3.248 67.912 2.94C67.968 2.632 68.0053 2.352 68.024 2.1ZM73.148 4.27H77.25V5.81H73.148V4.27ZM76.662 4.27H78.216C78.216 4.27 78.216 4.32133 78.216 4.424C78.216 4.51733 78.216 4.62467 78.216 4.746C78.216 4.86733 78.2113 4.96067 78.202 5.026C78.1646 6.60333 78.118 7.94267 78.062 9.044C78.0153 10.136 77.9546 11.0413 77.88 11.76C77.8146 12.4693 77.7353 13.0247 77.642 13.426C77.5486 13.8273 77.4273 14.1213 77.278 14.308C77.0913 14.5787 76.8906 14.7653 76.676 14.868C76.4613 14.9707 76.214 15.0453 75.934 15.092C75.6633 15.1293 75.3273 15.1433 74.926 15.134C74.534 15.134 74.1326 15.1293 73.722 15.12C73.7126 14.8867 73.6566 14.6113 73.554 14.294C73.4513 13.986 73.3253 13.7153 73.176 13.482C73.624 13.5193 74.0393 13.5427 74.422 13.552C74.814 13.5613 75.0986 13.566 75.276 13.566C75.416 13.566 75.528 13.552 75.612 13.524C75.7053 13.4867 75.794 13.4213 75.878 13.328C75.9993 13.2067 76.0973 12.9593 76.172 12.586C76.256 12.2033 76.326 11.6667 76.382 10.976C76.438 10.2853 76.4893 9.41267 76.536 8.358C76.5826 7.30333 76.6246 6.048 76.662 4.592V4.27ZM73.19 2.114L74.814 2.492C74.6366 3.17333 74.4173 3.85467 74.156 4.536C73.904 5.21733 73.624 5.86133 73.316 6.468C73.0173 7.06533 72.7093 7.588 72.392 8.036C72.2986 7.94267 72.1633 7.83533 71.986 7.714C71.818 7.58333 71.6453 7.45733 71.468 7.336C71.3 7.21467 71.1506 7.12133 71.02 7.056C71.328 6.65467 71.6173 6.19267 71.888 5.67C72.168 5.138 72.4153 4.56867 72.63 3.962C72.854 3.346 73.0406 2.73 73.19 2.114ZM72.504 8.316L73.82 7.574C74.0533 7.89133 74.3006 8.24133 74.562 8.624C74.8233 9.00667 75.0706 9.38 75.304 9.744C75.5373 10.108 75.7286 10.43 75.878 10.71L74.45 11.578C74.3193 11.2887 74.142 10.9573 73.918 10.584C73.7033 10.2107 73.47 9.828 73.218 9.436C72.9753 9.03467 72.7373 8.66133 72.504 8.316Z" fill="#FF6154" fill-opacity="0.7"/>
<path d="M79.532 7.63H92.496V9.464H79.532V7.63Z" fill="#FF6154" fill-opacity="0.7"/>
<path d="M101.778 12.81L103.01 11.984C103.374 12.1613 103.757 12.376 104.158 12.628C104.559 12.88 104.947 13.132 105.32 13.384C105.693 13.636 106.006 13.874 106.258 14.098L104.914 15.036C104.699 14.8213 104.415 14.5833 104.06 14.322C103.715 14.0607 103.341 13.7993 102.94 13.538C102.539 13.2673 102.151 13.0247 101.778 12.81ZM95.338 8.652H104.676V9.926H95.338V8.652ZM93.672 10.514H106.37V11.83H93.672V10.514ZM93.868 2.562H106.09V3.892H93.868V2.562ZM99.16 10.752H100.854V13.65C100.854 14.0233 100.807 14.3173 100.714 14.532C100.63 14.7467 100.457 14.91 100.196 15.022C99.9346 15.134 99.6266 15.204 99.272 15.232C98.9266 15.26 98.5206 15.274 98.054 15.274C98.026 15.05 97.9606 14.7933 97.858 14.504C97.7553 14.224 97.6526 13.9813 97.55 13.776C97.83 13.7853 98.1053 13.7947 98.376 13.804C98.6466 13.804 98.8286 13.7993 98.922 13.79C99.0153 13.79 99.076 13.776 99.104 13.748C99.1413 13.72 99.16 13.6687 99.16 13.594V10.752ZM96.444 11.942L97.984 12.474C97.7226 12.8193 97.4146 13.16 97.06 13.496C96.7053 13.832 96.332 14.1447 95.94 14.434C95.5573 14.7233 95.184 14.9753 94.82 15.19C94.7266 15.0873 94.6053 14.9613 94.456 14.812C94.3066 14.672 94.1526 14.532 93.994 14.392C93.8353 14.2613 93.6953 14.154 93.574 14.07C94.1246 13.818 94.6566 13.5053 95.17 13.132C95.6926 12.7493 96.1173 12.3527 96.444 11.942ZM96.234 5.824V6.874H103.682V5.824H96.234ZM94.68 4.634H105.348V8.078H94.68V4.634ZM97.648 3.08H99.188V7.588H97.648V3.08ZM100.644 3.08H102.226V7.588H100.644V3.08Z" fill="#FF6154" fill-opacity="0.7"/>
<path d="M109.716 15.932L109.268 14.798C109.856 14.6113 110.304 14.3547 110.612 14.028C110.929 13.7107 111.088 13.3467 111.088 12.936L110.976 11.564L111.76 12.81C111.639 12.9127 111.508 12.992 111.368 13.048C111.228 13.104 111.079 13.132 110.92 13.132C110.575 13.132 110.267 13.0247 109.996 12.81C109.725 12.586 109.59 12.2733 109.59 11.872C109.59 11.48 109.725 11.172 109.996 10.948C110.267 10.724 110.589 10.612 110.962 10.612C111.457 10.612 111.83 10.7847 112.082 11.13C112.343 11.4753 112.474 11.942 112.474 12.53C112.474 13.3233 112.231 14.0233 111.746 14.63C111.261 15.2367 110.584 15.6707 109.716 15.932Z" fill="#FF6154" fill-opacity="0.7"/>
<path d="M122.008 2.772H133.922V4.326H122.008V2.772ZM122.946 9.744H133.082V11.284H122.946V9.744ZM121.644 13.244H134.384V14.812H121.644V13.244ZM127.076 8.358H128.826V14.322H127.076V8.358ZM129.134 5.278L130.478 4.382C130.889 4.69 131.323 5.04 131.78 5.432C132.247 5.824 132.685 6.22067 133.096 6.622C133.516 7.014 133.852 7.37333 134.104 7.7L132.648 8.736C132.415 8.41867 132.102 8.05467 131.71 7.644C131.318 7.23333 130.893 6.82267 130.436 6.412C129.988 5.992 129.554 5.614 129.134 5.278ZM123.114 8.344C123.077 8.22267 123.025 8.064 122.96 7.868C122.904 7.672 122.839 7.47133 122.764 7.266C122.689 7.05133 122.624 6.874 122.568 6.734C122.727 6.68733 122.881 6.61267 123.03 6.51C123.189 6.40733 123.357 6.272 123.534 6.104C123.637 6.01067 123.777 5.87067 123.954 5.684C124.141 5.49733 124.346 5.27333 124.57 5.012C124.803 4.75067 125.032 4.466 125.256 4.158C125.489 3.85 125.709 3.528 125.914 3.192L127.748 3.71C127.225 4.44733 126.656 5.14733 126.04 5.81C125.433 6.47267 124.85 7.028 124.29 7.476V7.504C124.29 7.504 124.229 7.532 124.108 7.588C123.996 7.63467 123.861 7.70467 123.702 7.798C123.543 7.882 123.403 7.97533 123.282 8.078C123.17 8.17133 123.114 8.26 123.114 8.344ZM123.114 8.344L123.1 7.126L124.15 6.58L132.116 6.37C132.135 6.594 132.172 6.846 132.228 7.126C132.284 7.39667 132.335 7.616 132.382 7.784C131.113 7.84 130.016 7.88667 129.092 7.924C128.168 7.96133 127.384 7.994 126.74 8.022C126.096 8.05 125.564 8.07333 125.144 8.092C124.724 8.11067 124.383 8.134 124.122 8.162C123.87 8.18067 123.665 8.204 123.506 8.232C123.357 8.26 123.226 8.29733 123.114 8.344Z" fill="#FF6154" fill-opacity="0.7"/>
<path d="M136.778 4.942H147.474V6.608H136.778V4.942ZM135.84 8.526H148.202V10.192H135.84V8.526ZM142.854 9.044C143.171 9.79067 143.596 10.4627 144.128 11.06C144.669 11.6573 145.323 12.166 146.088 12.586C146.853 12.9967 147.726 13.3047 148.706 13.51C148.575 13.6407 148.431 13.804 148.272 14C148.123 14.196 147.978 14.3967 147.838 14.602C147.707 14.8167 147.6 15.008 147.516 15.176C146.471 14.8773 145.556 14.4667 144.772 13.944C143.988 13.4213 143.311 12.782 142.742 12.026C142.182 11.27 141.701 10.4067 141.3 9.436L142.854 9.044ZM144.674 2.114L146.508 2.716C146.293 3.08933 146.065 3.472 145.822 3.864C145.589 4.24667 145.36 4.606 145.136 4.942C144.912 5.278 144.693 5.57667 144.478 5.838L143.036 5.278C143.232 4.98867 143.433 4.66667 143.638 4.312C143.843 3.948 144.035 3.57467 144.212 3.192C144.399 2.8 144.553 2.44067 144.674 2.114ZM137.856 2.856L139.27 2.142C139.578 2.48733 139.867 2.87933 140.138 3.318C140.409 3.74733 140.614 4.13 140.754 4.466L139.256 5.306C139.181 5.082 139.069 4.83 138.92 4.55C138.771 4.26067 138.603 3.96667 138.416 3.668C138.229 3.36933 138.043 3.09867 137.856 2.856ZM141.132 5.516H143.106V8.428C143.106 8.904 143.055 9.394 142.952 9.898C142.849 10.3927 142.667 10.8873 142.406 11.382C142.154 11.8673 141.785 12.3433 141.3 12.81C140.824 13.2673 140.208 13.7013 139.452 14.112C138.696 14.532 137.767 14.91 136.666 15.246C136.591 15.1153 136.484 14.9567 136.344 14.77C136.204 14.5833 136.05 14.3967 135.882 14.21C135.723 14.0233 135.569 13.8647 135.42 13.734C136.419 13.4447 137.259 13.132 137.94 12.796C138.631 12.46 139.186 12.11 139.606 11.746C140.026 11.382 140.343 11.0133 140.558 10.64C140.782 10.2573 140.931 9.87933 141.006 9.506C141.09 9.12333 141.132 8.75 141.132 8.386V5.516Z" fill="#FF6154" fill-opacity="0.7"/>
<path d="M149.644 13.524H162.398V14.854H149.644V13.524ZM149.728 4.592H162.3V5.908H149.728V4.592ZM150.68 11.522H161.488V12.796H150.68V11.522ZM155.09 3.416H156.784V14.196H155.09V3.416ZM160.228 2.114L161.012 3.416C160.331 3.528 159.584 3.626 158.772 3.71C157.969 3.78467 157.134 3.85 156.266 3.906C155.398 3.962 154.525 4.00867 153.648 4.046C152.771 4.074 151.926 4.09267 151.114 4.102C151.105 3.906 151.063 3.68667 150.988 3.444C150.913 3.192 150.843 2.97733 150.778 2.8C151.59 2.78133 152.425 2.75333 153.284 2.716C154.152 2.67867 155.001 2.632 155.832 2.576C156.672 2.52 157.465 2.45467 158.212 2.38C158.968 2.296 159.64 2.20733 160.228 2.114ZM152.78 9.17V9.8H159.248V9.17H152.78ZM152.78 7.546V8.162H159.248V7.546H152.78ZM151.142 6.44H160.956V10.906H151.142V6.44Z" fill="#FF6154" fill-opacity="0.7"/>
<path d="M163.616 9.59H176.398V11.032H163.616V9.59ZM163.84 2.604H176.09V4.06H163.84V2.604ZM172.31 10.206L173.92 10.612C173.565 11.4333 173.113 12.1193 172.562 12.67C172.021 13.2207 171.363 13.6687 170.588 14.014C169.823 14.3593 168.931 14.63 167.914 14.826C166.906 15.022 165.758 15.1713 164.47 15.274C164.414 15.0313 164.325 14.7747 164.204 14.504C164.092 14.2333 163.971 14.0093 163.84 13.832C165.399 13.7667 166.738 13.622 167.858 13.398C168.987 13.1647 169.916 12.796 170.644 12.292C171.372 11.788 171.927 11.0927 172.31 10.206ZM165.422 12.572L166.542 11.41C167.419 11.578 168.297 11.7647 169.174 11.97C170.051 12.1753 170.905 12.39 171.736 12.614C172.576 12.838 173.36 13.062 174.088 13.286C174.825 13.5007 175.479 13.706 176.048 13.902L174.704 15.218C174.004 14.938 173.164 14.6393 172.184 14.322C171.204 14.014 170.135 13.7107 168.978 13.412C167.83 13.104 166.645 12.824 165.422 12.572ZM167.536 3.164H169.118V7.952H167.536V3.164ZM170.7 3.164H172.296V7.952H170.7V3.164ZM166.066 6.174V7.476H173.976V6.174H166.066ZM164.484 4.844H175.642V8.792H164.484V4.844ZM165.422 12.572C165.73 12.2173 166.052 11.816 166.388 11.368C166.733 10.92 167.06 10.4533 167.368 9.968C167.676 9.47333 167.942 9.002 168.166 8.554L169.888 8.96C169.673 9.38933 169.421 9.828 169.132 10.276C168.852 10.724 168.558 11.1487 168.25 11.55C167.951 11.942 167.681 12.2827 167.438 12.572H165.422Z" fill="#FF6154" fill-opacity="0.7"/>
</svg>
